<svg xmlns="http://www.w3.org/2000/svg" xmlns:xlink="http://www.w3.org/1999/xlink" viewBox="0,0,256,256" width="96px" height="96px"><g fill="none" fill-rule="nonzero" stroke="none" stroke-width="none" stroke-linecap="none" stroke-linejoin="none" stroke-miterlimit="10" stroke-dasharray="" stroke-dashoffset="0" font-family="none" font-weight="none" font-size="none" text-anchor="none" style="mix-blend-mode: normal"><g transform="scale(5.33333,5.33333)"><circle cx="28" cy="28" r="18" fill="#90caf9" stroke="none" stroke-width="1" stroke-linecap="butt" stroke-linejoin="miter"></circle><circle cx="15.5" cy="15.5" r="2.5" fill="#18193f" stroke="none" stroke-width="1" stroke-linecap="butt" stroke-linejoin="miter"></circle><path d="M17,35h-3c-0.553,0 -1,-0.447 -1,-1v-13c0,-0.553 0.447,-1 1,-1h3c0.553,0 1,0.447 1,1v13c0,0.553 -0.447,1 -1,1z" fill="#18193f" stroke="none" stroke-width="1" stroke-linecap="butt" stroke-linejoin="miter"></path><path d="M29,20c-1.538,0 -2.937,0.586 -4,1.541v-0.541c0,-0.553 -0.447,-1 -1,-1h-3c-0.553,0 -1,0.447 -1,1v13c0,0.553 0.447,1 1,1h3c0.553,0 1,-0.447 1,-1v-7.5c0,-1.379 1.121,-2.5 2.5,-2.5c1.379,0 2.5,1.121 2.5,2.5v7.5c0,0.553 0.447,1 1,1h3c0.553,0 1,-0.447 1,-1v-8c0,-3.309 -2.691,-6 -6,-6z" fill="#18193f" stroke="none" stroke-width="1" stroke-linecap="butt" stroke-linejoin="miter"></path><path d="M30.187,41.44c-1.935,0.686 -4.017,1.06 -6.187,1.06c-10.217,0 -18.5,-8.283 -18.5,-18.5c0,-4.69 1.745,-8.972 4.621,-12.232" fill="none" stroke="#18193f" stroke-width="3" stroke-linecap="round" stroke-linejoin="round"></path><path d="M16.98,6.878c2.165,-0.888 4.535,-1.378 7.02,-1.378c10.217,0 18.5,8.283 18.5,18.5c0,5.267 -2.201,10.019 -5.733,13.388" fill="none" stroke="#18193f" stroke-width="3" stroke-linecap="round" stroke-linejoin="round"></path></g></g></svg>