<svg xmlns="http://www.w3.org/2000/svg" xmlns:xlink="http://www.w3.org/1999/xlink" width="250" zoomAndPan="magnify" viewBox="0 0 187.5 89.999999" height="120" preserveAspectRatio="xMidYMid meet" version="1.0"><defs><g/></defs><g fill="#fff4ca" fill-opacity="1"><g transform="translate(35.734083, 71.442072)"><g><path d="M 4.15625 -57.1875 L 24.609375 -57.1875 C 30.109375 -57.1875 34.585938 -55.71875 38.046875 -52.78125 C 41.515625 -49.84375 43.25 -45.648438 43.25 -40.203125 C 43.25 -35.992188 42.195312 -32.46875 40.09375 -29.625 C 37.988281 -26.789062 35.132812 -24.796875 31.53125 -23.640625 L 51.21875 0 L 34.65625 0 L 17.1875 -22.59375 L 17.1875 0 L 4.15625 0 Z M 17.1875 -31.8125 L 18.71875 -31.8125 C 19.914062 -31.8125 20.929688 -31.832031 21.765625 -31.875 C 22.597656 -31.925781 23.546875 -32.085938 24.609375 -32.359375 C 25.671875 -32.640625 26.523438 -33.035156 27.171875 -33.546875 C 27.816406 -34.054688 28.367188 -34.796875 28.828125 -35.765625 C 29.296875 -36.734375 29.53125 -37.910156 29.53125 -39.296875 C 29.53125 -40.679688 29.296875 -41.859375 28.828125 -42.828125 C 28.367188 -43.804688 27.816406 -44.546875 27.171875 -45.046875 C 26.523438 -45.554688 25.671875 -45.945312 24.609375 -46.21875 C 23.546875 -46.5 22.597656 -46.660156 21.765625 -46.703125 C 20.929688 -46.753906 19.914062 -46.78125 18.71875 -46.78125 L 17.1875 -46.78125 Z M 17.1875 -31.8125 "/></g></g></g><g fill="#fff4ca" fill-opacity="1"><g transform="translate(78.841688, 71.442072)"><g><path d="M 51.4375 0 L 48.734375 -33.890625 L 48.375 -33.890625 L 36.671875 -0.34375 L 28.90625 -0.34375 L 17.1875 -33.890625 L 16.84375 -33.890625 L 14.140625 0 L 1.109375 0 L 6.234375 -57.1875 L 20.09375 -57.1875 L 32.78125 -24.1875 L 45.46875 -57.1875 L 59.328125 -57.1875 L 64.453125 0 Z M 51.4375 0 "/></g></g></g><g fill="#fff4ca" fill-opacity="1"><g transform="translate(137.889969, 71.442072)"><g><path d="M 12.0625 -14.828125 C 14.28125 -14.828125 16.160156 -14.050781 17.703125 -12.5 C 19.253906 -10.957031 20.03125 -9.078125 20.03125 -6.859375 C 20.03125 -4.691406 19.253906 -2.832031 17.703125 -1.28125 C 16.160156 0.269531 14.28125 1.046875 12.0625 1.046875 C 9.882812 1.046875 8.019531 0.269531 6.46875 -1.28125 C 4.925781 -2.832031 4.15625 -4.691406 4.15625 -6.859375 C 4.15625 -9.078125 4.925781 -10.957031 6.46875 -12.5 C 8.019531 -14.050781 9.882812 -14.828125 12.0625 -14.828125 Z M 12.0625 -14.828125 "/></g></g></g></svg>